<svg width="1280" height="420" viewBox="0 0 1280 420" fill="none" xmlns="http://www.w3.org/2000/svg" role="img" aria-label="Email Template Check cover">

  <defs>
    <linearGradient id="g" x1="0" x2="1" y1="0" y2="1">
      <stop offset="0" stop-color="#3b82f6" stop-opacity=".34"/>
      <stop offset=".54" stop-color="#0b1020" stop-opacity="0"/>
      <stop offset="1" stop-color="#22d3ee" stop-opacity=".30"/>
    </linearGradient>
    <filter id="grain" x="-20%" y="-20%" width="140%" height="140%">
      <feTurbulence type="fractalNoise" baseFrequency=".85" numOctaves="2" seed="86" result="noise"/>
      <feColorMatrix type="saturate" values="0"/>
      <feComponentTransfer><feFuncA type="table" tableValues="0 .10"/></feComponentTransfer>
      <feBlend mode="soft-light" in2="SourceGraphic"/>
    </filter>
  </defs>
  <rect width="1280" height="420" rx="30" fill="#0b1020"/>
  <rect width="1280" height="420" rx="30" fill="url(#g)" filter="url(#grain)"/>

  <rect x="0" y="0" width="426" height="420" fill="#3b82f6" opacity=".18"/>
  <path d="M102 304c116-58 246-64 360-4 114 60 246 72 410-10 152-76 260-66 328-30" stroke="#22d3ee" stroke-width="14" stroke-linecap="round" opacity=".64"/>
  <text x="92" y="166" fill="#f8fafc" font-family="Aptos, Segoe UI, ui-sans-serif, system-ui" font-size="60" font-weight="850">Email Template Check</text>
  <text x="96" y="226" fill="#c7d2fe" font-family="Aptos, Segoe UI, ui-sans-serif, system-ui" font-size="23">Lint transactional email templates for unsafe links...</text>
  <text x="96" y="286" fill="#22d3ee" font-family="ui-monospace, SFMono-Regular, Menlo, monospace" font-size="18" font-weight="800">OPERATIONS</text>
  <rect x="846" y="122" width="148" height="28" rx="8" fill="#3b82f6" opacity=".85"/>
  <text x="862" y="141" fill="#f8fafc" font-family="ui-monospace, SFMono-Regular, Menlo, monospace" font-size="13">insecure-link</text>
  <rect x="846" y="176" width="236" height="28" rx="8" fill="#22d3ee" opacity=".85"/>
  <text x="862" y="195" fill="#f8fafc" font-family="ui-monospace, SFMono-Regular, Menlo, monospace" font-size="13">missing-unsubscribe</text>
  <rect x="846" y="230" width="270" height="28" rx="8" fill="#3b82f6" opacity=".85"/>
  <text x="862" y="249" fill="#f8fafc" font-family="ui-monospace, SFMono-Regular, Menlo, monospace" font-size="13">missing-support</text>
</svg>
